<svg width="24" height="24" viewBox="0 0 24 24" fill="none" xmlns="http://www.w3.org/2000/svg">
    <g clip-path="url(#clip0_1015_10)">
        <path
            d="M24 18C24 18.7073 23.719 19.3855 23.219 19.8856C22.7189 20.3857 22.0406 20.6667 21.3333 20.6667H2.66667C1.95942 20.6667 1.28115 20.3857 0.781049 19.8856C0.280952 19.3855 0 18.7073 0 18V6.00001C0 5.29277 0.280952 4.61449 0.781049 4.11439C1.28115 3.61429 1.95942 3.33334 2.66667 3.33334H21.3333C22.0406 3.33334 22.7189 3.61429 23.219 4.11439C23.719 4.61449 24 5.29277 24 6.00001V18Z"
            fill="white" />
        <path
            d="M12 16.6667C14.5773 16.6667 16.6667 14.5773 16.6667 12C16.6667 9.42268 14.5773 7.33334 12 7.33334C9.42268 7.33334 7.33334 9.42268 7.33334 12C7.33334 14.5773 9.42268 16.6667 12 16.6667Z"
            fill="#ED1B2F" />
    </g>
    <defs>
        <clipPath id="clip0_1015_10">
            <rect width="24" height="24" fill="white" />
        </clipPath>
    </defs>
</svg>