<svg width="24" height="24" viewBox="0 0 24 24" fill="none" xmlns="http://www.w3.org/2000/svg">
<path d="M14.0002 18H9.00001C7.72919 17.9964 6.49235 17.5893 5.46775 16.8375C4.44315 16.0857 3.68372 15.028 3.29892 13.8168C2.91411 12.6057 2.92381 11.3036 3.3266 10.0983C3.7294 8.89298 4.5045 7.8467 5.54017 7.11024M9.99985 6H15C16.271 6.00351 17.508 6.41051 18.5327 7.16233C19.5574 7.91415 20.317 8.97196 20.7018 10.1833C21.0866 11.3945 21.0769 12.6968 20.674 13.9021C20.271 15.1075 19.4957 16.1538 18.4599 16.8902" stroke="#EF4444" stroke-width="0.96" stroke-linecap="round" stroke-linejoin="round"/>
<path d="M12 15.9998L14.0002 18L12 20.0002M12 8.00017L9.99985 6.00001L12 3.99985" stroke="#450A0A" stroke-width="0.96" stroke-linecap="round" stroke-linejoin="round"/>
</svg>
